# xmcd CD database file
#
# Track frame offsets:
#	150
#	19353
#	40481
#	59710
#
# Disc length: 1071 seconds
#
# Revision: 0
# Processed by: cddbd v1.5PL3 Copyright (c) Steve Scherf et al.
# Submitted via: CDex 1.51
#
DISCID=38042d04
DTITLE=安室奈美恵 - ALARM
DYEAR=2004
DGENRE=Vocal
TTITLE0=ALARM
TTITLE1=STROBE
TTITLE2=ALARM (Inst)
TTITLE3=STROBE (Inst)
EXTD=YEAR: 2004
EXTT0=
EXTT1=
EXTT2=
EXTT3=
PLAYORDER=
